<?xml version="1.0" encoding="UTF-8" standalone="no"?>
<!DOCTYPE svg PUBLIC "-//W3C//DTD SVG 1.1//EN"
 "http://www.w3.org/Graphics/SVG/1.1/DTD/svg11.dtd">
<!-- Generated by graphviz version 2.40.1 (20161225.0304)
 -->
<!-- Title: dependencies Pages: 1 -->
<svg width="504pt" height="276pt"
 viewBox="0.00 0.00 504.00 276.00" xmlns="http://www.w3.org/2000/svg" xmlns:xlink="http://www.w3.org/1999/xlink">
<g id="graph0" class="graph" transform="scale(1 1) rotate(0) translate(4 272)">
<title>dependencies</title>
<polygon fill="#ffffff" stroke="transparent" points="-4,4 -4,-272 500,-272 500,4 -4,4"/>
<text text-anchor="start" x="227.0091" y="-42.4" font-family="sans-serif" font-weight="bold" font-size="14.00" fill="#000000">Legend</text>
<polygon fill="#ffffb3" stroke="transparent" points="14,-10 14,-30 34,-30 34,-10 14,-10"/>
<text text-anchor="start" x="37.629" y="-15.4" font-family="sans-serif" font-size="14.00" fill="#000000"> &#160;Declarations</text>
<polygon fill="#8dd3c7" stroke="transparent" points="127,-10 127,-30 147,-30 147,-10 127,-10"/>
<text text-anchor="start" x="150.7251" y="-15.4" font-family="sans-serif" font-size="14.00" fill="#000000"> &#160;Module</text>
<polygon fill="#80b1d3" stroke="transparent" points="213,-10 213,-30 233,-30 233,-10 213,-10"/>
<text text-anchor="start" x="236.7812" y="-15.4" font-family="sans-serif" font-size="14.00" fill="#000000"> &#160;Bootstrap</text>
<polygon fill="#fdb462" stroke="transparent" points="310,-10 310,-30 330,-30 330,-10 310,-10"/>
<text text-anchor="start" x="333.6732" y="-15.4" font-family="sans-serif" font-size="14.00" fill="#000000"> &#160;Providers</text>
<polygon fill="#fb8072" stroke="transparent" points="406,-10 406,-30 426,-30 426,-10 406,-10"/>
<text text-anchor="start" x="429.7258" y="-15.4" font-family="sans-serif" font-size="14.00" fill="#000000"> &#160;Exports</text>
<g id="clust1" class="cluster">
<title>cluster_AboutModule</title>
<polygon fill="none" stroke="#000000" stroke-dasharray="1,5" points="92,-70 92,-260 404,-260 404,-70 92,-70"/>
</g>
<g id="clust2" class="cluster">
<title>cluster_AboutModule_declarations</title>
<polygon fill="none" stroke="#000000" points="264,-143 264,-195 396,-195 396,-143 264,-143"/>
</g>
<g id="clust3" class="cluster">
<title>cluster_AboutModule_AboutComponent_providers</title>
<polygon fill="none" stroke="#000000" points="248,-78 248,-130 396,-130 396,-78 248,-78"/>
</g>
<g id="clust4" class="cluster">
<title>cluster_AboutModule_imports</title>
<polygon fill="none" stroke="#000000" points="100,-143 100,-195 256,-195 256,-143 100,-143"/>
</g>
<!-- AboutComponent -->
<g id="node1" class="node">
<title>AboutComponent</title>
<polygon fill="#ffffb3" stroke="#000000" points="388.3301,-187 271.6699,-187 271.6699,-151 388.3301,-151 388.3301,-187"/>
<text text-anchor="middle" x="330" y="-164.8" font-family="Times,serif" font-size="14.00" fill="#000000">AboutComponent</text>
</g>
<!-- AboutModule -->
<g id="node2" class="node">
<title>AboutModule</title>
<polygon fill="#8dd3c7" stroke="#000000" points="301.0481,-252 298.0481,-256 277.0481,-256 274.0481,-252 206.9519,-252 206.9519,-216 301.0481,-216 301.0481,-252"/>
<text text-anchor="middle" x="254" y="-229.8" font-family="Times,serif" font-size="14.00" fill="#000000">AboutModule</text>
</g>
<!-- AboutComponent&#45;&gt;AboutModule -->
<g id="edge1" class="edge">
<title>AboutComponent&#45;&gt;AboutModule</title>
<path fill="none" stroke="#000000" d="M286.5544,-187.1061C286.5544,-187.1061 286.5544,-205.991 286.5544,-205.991"/>
<polygon fill="#000000" stroke="#000000" points="283.0544,-205.9909 286.5544,-215.991 290.0544,-205.991 283.0544,-205.9909"/>
</g>
<!-- EmptyService -->
<g id="node3" class="node">
<title>EmptyService</title>
<ellipse fill="#fdb462" stroke="#000000" cx="322" cy="-104" rx="65.989" ry="18"/>
<text text-anchor="middle" x="322" y="-99.8" font-family="Times,serif" font-size="14.00" fill="#000000">EmptyService</text>
</g>
<!-- EmptyService&#45;&gt;AboutComponent -->
<g id="edge2" class="edge">
<title>EmptyService&#45;&gt;AboutComponent</title>
<path fill="none" stroke="#000000" d="M329.7896,-122.1061C329.7896,-122.1061 329.7896,-140.991 329.7896,-140.991"/>
<polygon fill="#000000" stroke="#000000" points="326.2897,-140.9909 329.7896,-150.991 333.2897,-140.991 326.2897,-140.9909"/>
</g>
<!-- AboutRoutingModule -->
<g id="node4" class="node">
<title>AboutRoutingModule</title>
<polygon fill="#8dd3c7" stroke="#000000" points="247.6652,-187 244.6652,-191 223.6652,-191 220.6652,-187 108.3348,-187 108.3348,-151 247.6652,-151 247.6652,-187"/>
<text text-anchor="middle" x="178" y="-164.8" font-family="Times,serif" font-size="14.00" fill="#000000">AboutRoutingModule</text>
</g>
<!-- AboutRoutingModule&#45;&gt;AboutModule -->
<g id="edge3" class="edge">
<title>AboutRoutingModule&#45;&gt;AboutModule</title>
<path fill="none" stroke="#000000" d="M227.2795,-187.1061C227.2795,-187.1061 227.2795,-205.991 227.2795,-205.991"/>
<polygon fill="#000000" stroke="#000000" points="223.7795,-205.9909 227.2795,-215.991 230.7795,-205.991 223.7795,-205.9909"/>
</g>
</g>
</svg>
